<svg width="26" height="26" viewBox="0 0 26 26" fill="none" xmlns="http://www.w3.org/2000/svg">
<path d="M15.82 13L24.42 4.42C24.7966 4.0434 25.0082 3.53261 25.0082 3C25.0082 2.4674 24.7966 1.95661 24.42 1.58C24.0434 1.2034 23.5326 0.991821 23 0.991821C22.4674 0.991821 21.9566 1.2034 21.58 1.58L13 10.18L4.42 1.58C4.04339 1.2034 3.5326 0.991821 3 0.991821C2.4674 0.991821 1.95661 1.2034 1.58 1.58C1.20339 1.95661 0.991817 2.4674 0.991817 3C0.991817 3.53261 1.20339 4.0434 1.58 4.42L10.18 13L1.58 21.58C1.39254 21.7659 1.24375 21.9871 1.14222 22.2309C1.04068 22.4746 0.988403 22.736 0.988403 23C0.988403 23.264 1.04068 23.5254 1.14222 23.7692C1.24375 24.0129 1.39254 24.2341 1.58 24.42C1.76593 24.6075 1.98713 24.7563 2.23085 24.8578C2.47456 24.9593 2.73598 25.0116 3 25.0116C3.26402 25.0116 3.52544 24.9593 3.76915 24.8578C4.01287 24.7563 4.23407 24.6075 4.42 24.42L13 15.82L21.58 24.42C21.7659 24.6075 21.9871 24.7563 22.2308 24.8578C22.4746 24.9593 22.736 25.0116 23 25.0116C23.264 25.0116 23.5254 24.9593 23.7692 24.8578C24.0129 24.7563 24.2341 24.6075 24.42 24.42C24.6075 24.2341 24.7562 24.0129 24.8578 23.7692C24.9593 23.5254 25.0116 23.264 25.0116 23C25.0116 22.736 24.9593 22.4746 24.8578 22.2309C24.7562 21.9871 24.6075 21.7659 24.42 21.58L15.82 13Z" fill="white"/>
</svg>
